<?xml version="1.0" encoding="utf-8"?>
<!-- Generator: Adobe Illustrator 21.0.0, SVG Export Plug-In . SVG Version: 6.00 Build 0)  -->
<svg version="1.1" id="error" xmlns="http://www.w3.org/2000/svg" xmlns:xlink="http://www.w3.org/1999/xlink" x="0px" y="0px"
	 viewBox="0 0 512 512" style="enable-background:new 0 0 512 512;" xml:space="preserve">
<style type="text/css">
	.st0{fill:#F8FF13;}
</style>
<g>
	<path class="st0" d="M432.8,190.1c-1.9-46-40-82.8-86.5-82.8c-11.8,0-23.5,2.4-34.2,7c-21.2-39.3-61.3-64.7-106.2-67
		c-41.2-2-81.2,16.3-107,49c-2.6,3.3-2,8,1.3,10.5s8,2,10.5-1.3c22.8-28.9,58.1-45.1,94.5-43.3c42,2.1,79,27,96.8,65.1
		c0.9,1.9,2.5,3.3,4.4,4s4.1,0.5,5.9-0.5c10.4-5.6,22.1-8.6,34-8.6c39.5,0,71.6,32,71.6,71.4c0,0.9,0,1.9-0.1,3.2
		c-0.1,2,0.7,4,2.1,5.5c1.4,1.5,3.4,2.3,5.4,2.3c0.1,0,0.1,0,0.2,0c39.4,0.1,71.5,32.1,71.5,71.4c0,0.8,0,1.7,0,2.5
		c-0.5,15.8-7.3,30.6-19,41.7c-11.7,11-27,17.1-43.1,17.1h-64.3c-1.9-66.6-56.6-120.2-123.7-120.2c-67.1,0-121.8,53.6-123.7,120.2
		H77.2c-16.1,0-31.4-6.1-43.1-17.1c-11.7-11-18.5-25.8-19-41.7c0-0.8,0-1.7,0-2.5c0-37.5,29.3-68.8,66.8-71.3
		c2.1-0.1,4.1-1.2,5.4-2.9c1.3-1.7,1.8-3.9,1.4-6c-1.4-7.2-2-14.5-2-21.8c0.1-14.6,3-28.9,8.6-42.3c1.6-3.8-0.2-8.2-4-9.8
		c-3.8-1.6-8.2,0.2-9.8,4c-6.4,15.3-9.7,31.4-9.7,48c0,5.6,0.3,11.2,1,16.7C31.3,197.6,0,233.6,0,276.2c0,1,0,2,0.1,3
		c0.7,19.8,9.1,38.3,23.7,52.1c14.5,13.6,33.5,21.2,53.4,21.2h46.4c5.8,62.9,58.8,112.3,123.2,112.3c31.5,0,61.4-11.8,84.4-33.3
		c3-2.8,3.2-7.6,0.4-10.6c-2.8-3-7.6-3.2-10.6-0.4c-20.2,18.9-46.5,29.2-74.2,29.2c-60,0-108.7-48.8-108.7-108.7
		s48.8-108.7,108.7-108.7S355.5,281.1,355.5,341c0,19.9-5.4,39.4-15.7,56.3c-2.1,3.5-1,8.2,2.5,10.3c3.5,2.1,8.2,1,10.3-2.5
		c9.7-16,15.6-34,17.3-52.6h64.8c19.9,0,38.9-7.5,53.4-21.2c14.6-13.8,23-32.3,23.7-52.1c0-1,0.1-2,0.1-3
		C512,231.1,477.1,193.9,432.8,190.1L432.8,190.1z"/>
	<path class="st0" d="M298.3,320.9l-27.4-27.4c-1.4-1.4-3.3-2.2-5.3-2.2c-2,0-3.9,0.8-5.3,2.2L246.8,307l-13.5-13.5
		c-1.4-1.4-3.3-2.2-5.3-2.2s-3.9,0.8-5.3,2.2l-27.4,27.4c-2.9,2.9-2.9,7.7,0,10.6l13.5,13.5l-13.5,13.5c-2.9,2.9-2.9,7.7,0,10.6
		l27.4,27.4c1.4,1.4,3.3,2.2,5.3,2.2s3.9-0.8,5.3-2.2l13.5-13.5l13.5,13.5c1.4,1.4,3.3,2.2,5.3,2.2s3.9-0.8,5.3-2.2l27.4-27.4
		c2.9-2.9,2.9-7.7,0-10.6L284.8,345l13.5-13.5C301.2,328.5,301.2,323.8,298.3,320.9z M268.9,350.3l13.5,13.5l-16.8,16.8l-13.5-13.5
		c-1.4-1.4-3.3-2.2-5.3-2.2s-3.9,0.8-5.3,2.2L228,380.6l-16.8-16.8l13.5-13.5c2.9-2.9,2.9-7.7,0-10.6l-13.5-13.5l16.8-16.8
		l13.5,13.5c1.4,1.4,3.3,2.2,5.3,2.2s3.9-0.8,5.3-2.2l13.5-13.5l16.8,16.8l-13.5,13.5C266,342.6,266,347.4,268.9,350.3z"/>
</g>
</svg>
