<svg width="132" height="55" viewBox="0 0 132 55" fill="none" xmlns="http://www.w3.org/2000/svg">
<path d="M47.3471 21.6629V23.946H44.5452V16.6299H50.6419C53.3401 16.6299 54.1184 17.6936 54.1184 19.0426V19.1983C54.1184 20.5214 53.3141 21.637 50.6419 21.637H47.3471V21.6629ZM47.3471 19.8469H50.3046C50.9532 19.8469 51.2386 19.5875 51.2386 19.1724V19.1464C51.2386 18.7313 50.9792 18.4719 50.3046 18.4719H47.3471V19.8469Z" fill="#F8FF12"/>
<path d="M60.4745 22.7785H56.2975L55.7268 23.946H52.8989L56.5051 16.6299H60.2669L64.0806 23.946H61.0193L60.4745 22.7785ZM58.3471 18.42L57.1537 20.9365H59.5924L58.3471 18.42Z" fill="#F8FF12"/>
<path d="M67.194 23.946H64.3921V16.6299H71.0337C73.161 16.6299 74.121 17.3304 74.121 18.4978V18.6016C74.121 19.6653 73.187 20.1063 72.6422 20.236C73.5502 20.4436 74.1469 21.0403 74.1469 21.9743V23.0639C74.1469 23.5828 74.2247 23.7644 74.2766 23.8941V23.946H71.4228C71.345 23.8682 71.345 23.7644 71.345 23.5568V22.7266C71.345 21.8964 70.9558 21.4554 69.8662 21.4554H67.194V23.946ZM67.194 19.6912H70.3851C71.0077 19.6912 71.2412 19.4058 71.2412 19.0686C71.2412 18.7313 71.0337 18.4459 70.3851 18.4459H67.194V19.6912Z" fill="#F8FF12"/>
<path d="M77.701 23.946H74.925V16.6299H77.701V23.946Z" fill="#F8FF12"/>
<path d="M78.6611 16.6559H82.5008L84.7319 20.755L87.015 16.6559H90.699V23.972H87.949V19.4059L85.3805 23.972H83.9536L81.4112 19.4059V23.972H78.6871V16.6559H78.6611Z" fill="#F8FF12"/>
<path d="M98.5599 22.7785H94.383L93.8122 23.946H90.9844L94.5905 16.6299H98.3524L102.166 23.946H99.1307L98.5599 22.7785ZM96.4325 18.42L95.2391 20.9365H97.6778L96.4325 18.42Z" fill="#F8FF12"/>
<path d="M103.904 18.6275H100.739V16.6299H109.845V18.6275H106.68V23.946H103.878V18.6275H103.904Z" fill="#F8FF12"/>
<path d="M115.268 24.1017C110.779 24.1017 110.105 21.8187 110.105 20.4177V20.1324C110.105 18.7314 110.701 16.5002 115.268 16.5002H115.657C120.093 16.5002 120.742 18.5238 120.742 19.4578V19.5875H117.836C117.784 19.38 117.551 18.472 115.423 18.472C113.4 18.472 112.984 19.354 112.984 20.1842V20.314C112.984 21.0923 113.477 22.13 115.449 22.13C117.602 22.13 117.81 21.0923 117.862 20.9366H120.742V21.0923C120.742 22.0522 120.041 24.1017 115.657 24.1017H115.268Z" fill="#F8FF12"/>
<path d="M121.416 16.6559H124.218V19.2502H128.784V16.6559H131.56V23.972H128.784V21.1701H124.218V23.946H121.416V16.6559Z" fill="#F8FF12"/>
<path d="M47.5029 33.9342V36.321H44.5972V28.6936H50.9534C53.7812 28.6936 54.5855 29.8092 54.5855 31.2101V31.3658C54.5855 32.7408 53.7553 33.9083 50.9534 33.9083H47.5029V33.9342ZM47.5029 32.0144H50.5901C51.2647 32.0144 51.5501 31.729 51.5501 31.3139V31.288C51.5501 30.8469 51.2647 30.5875 50.5901 30.5875H47.5029V32.0144Z" fill="#F8FF12"/>
<path d="M60.9936 28.538C65.9229 28.538 66.5455 30.8988 66.5455 32.3257V32.6371C66.5455 34.064 65.9229 36.4508 60.9936 36.4508H60.5266C55.5714 36.4508 54.9487 34.064 54.9487 32.6371V32.3257C54.9487 30.8988 55.5714 28.538 60.5266 28.538H60.9936ZM63.5361 32.4036C63.5361 31.5993 63.0172 30.5875 60.7601 30.5875C58.4511 30.5875 57.9841 31.5734 57.9841 32.4036V32.5333C57.9841 33.3375 58.503 34.4012 60.7601 34.4012C63.0172 34.4012 63.5361 33.3635 63.5361 32.5333V32.4036Z" fill="#F8FF12"/>
<path d="M67.272 28.6936H72.6942C77.1046 28.6936 78.1942 30.5097 78.1942 32.2998V32.6111C78.1942 34.3493 77.2343 36.321 72.6942 36.321H67.272V28.6936ZM70.1777 34.2974H72.331C74.8735 34.2974 75.1588 33.1819 75.1588 32.5073V32.4554C75.1588 31.7809 74.8735 30.6913 72.331 30.6913H70.1777V34.2974Z" fill="#F8FF12"/>
<path d="M84.0315 36.4508C79.3357 36.4508 78.6353 34.064 78.6353 32.6111V32.3257C78.6353 30.8729 79.2838 28.538 84.0315 28.538H84.4207C89.0646 28.538 89.7391 30.6394 89.7391 31.6253V31.755H86.7037C86.6518 31.5474 86.4183 30.5875 84.1872 30.5875C82.0858 30.5875 81.6447 31.5215 81.6447 32.3776V32.5073C81.6447 33.3375 82.1636 34.4012 84.2131 34.4012C86.4702 34.4012 86.6778 33.3116 86.7297 33.1559H89.7391V33.3116C89.7391 34.2974 89.0127 36.4508 84.4207 36.4508H84.0315Z" fill="#F8FF12"/>
<path d="M97.1071 35.0757H92.7486L92.1519 36.295H89.1943L92.9562 28.6676H96.8736L100.869 36.295H97.6779L97.1071 35.0757ZM94.9019 30.5615L93.6566 33.1818H96.1991L94.9019 30.5615Z" fill="#F8FF12"/>
<path d="M105.175 36.4508C100.973 36.4508 100.531 34.7385 100.531 33.7526V33.6489H103.723C103.749 34.064 103.956 34.7385 105.642 34.7385H105.746C107.381 34.7385 107.614 34.4012 107.614 34.0121C107.614 33.6229 107.407 33.3635 105.824 33.3375L104.397 33.2857C101.44 33.2078 100.661 32.1701 100.661 30.9767V30.8729C100.661 29.6276 101.491 28.538 105.046 28.538H105.954C109.716 28.538 110.598 29.7314 110.598 30.9507V31.0286H107.432C107.407 30.7432 107.225 30.2243 105.591 30.2243H105.487C103.956 30.2243 103.8 30.4837 103.8 30.7951C103.8 31.1064 104.034 31.3399 105.461 31.3918L106.836 31.4177C109.741 31.4955 110.857 32.1701 110.857 33.7267V33.8824C110.857 35.1536 110.131 36.4767 106.135 36.4767H105.175V36.4508Z" fill="#F8FF12"/>
<path d="M114.334 30.7691H111.039V28.6936H120.534V30.7691H117.239V36.321H114.334V30.7691Z" fill="#F8FF12"/>
<path d="M125.567 36.4508C121.364 36.4508 120.923 34.7385 120.923 33.7526V33.6489H124.114C124.14 34.064 124.348 34.7385 126.034 34.7385H126.138C127.772 34.7385 128.006 34.4012 128.006 34.0121C128.006 33.6229 127.798 33.3635 126.216 33.3375L124.789 33.2857C121.831 33.2078 121.053 32.1701 121.053 30.9767V30.8729C121.053 29.6276 121.883 28.538 125.438 28.538H126.346C130.107 28.538 130.989 29.7314 130.989 30.9507V31.0286H127.824C127.798 30.7432 127.617 30.2243 125.982 30.2243H125.879C124.348 30.2243 124.192 30.4837 124.192 30.7951C124.192 31.1064 124.426 31.3399 125.853 31.3918L127.228 31.4177C130.133 31.4955 131.249 32.1701 131.249 33.7267V33.8824C131.249 35.1536 130.522 36.4767 126.527 36.4767H125.567V36.4508Z" fill="#F8FF12"/>
<path d="M18.0568 40.8353C22.4672 40.8353 26.0474 37.255 26.0474 32.8446V15.8256C26.0474 11.4152 22.4672 7.83496 18.0568 7.83496C13.6464 7.83496 10.0662 11.4152 10.0662 15.8256V32.8446C10.0662 37.255 13.6464 40.8353 18.0568 40.8353ZM21.2738 28.8493H15.5403L16.7596 24.5427H22.4932L21.2738 28.8493ZM14.8398 19.6393H20.5733L19.354 23.946H13.6204L14.8398 19.6393Z" fill="#F8FF12"/>
<path d="M29.0308 33.9343C28.3044 33.9343 27.7077 34.531 27.7077 35.2574C27.7077 40.5499 23.4011 44.8825 18.0826 44.8825C12.7901 44.8825 8.45753 40.5759 8.45753 35.2574C8.45753 34.531 7.86082 33.9343 7.1344 33.9343C6.40798 33.9343 5.81128 34.531 5.81128 35.2574C5.81128 38.5263 7.08252 41.6136 9.41744 43.9226C11.4151 45.9203 13.9835 47.1396 16.7595 47.4509V51.6538H11.7524C11.0259 51.6538 10.4292 52.2505 10.4292 52.9769C10.4292 53.7034 11.0259 54.3001 11.7524 54.3001H24.335C25.0615 54.3001 25.6582 53.7034 25.6582 52.9769C25.6582 52.2505 25.0615 51.6538 24.335 51.6538H19.4057V47.4509C22.1817 47.1656 24.7501 45.9203 26.7478 43.9226C29.0568 41.6136 30.354 38.5263 30.354 35.2574C30.354 34.531 29.7572 33.9343 29.0308 33.9343Z" fill="#F8FF12"/>
<path d="M33.4413 17.3044H33.3376C33.2857 16.3964 32.8706 15.5921 32.2739 15.177C32.2479 13.1534 31.8847 11.1817 31.1583 9.31376C30.4319 7.47176 29.4201 5.83732 28.1229 4.43636C26.8257 3.03541 25.3469 1.94577 23.6606 1.19341C21.9483 0.4151 20.1063 0 18.2384 0C16.3704 0 14.5284 0.389156 12.8162 1.19341C11.1558 1.94577 9.65103 3.03541 8.35385 4.43636C7.05667 5.83732 6.01892 7.47176 5.31844 9.31376C4.61797 11.1298 4.22881 13.0496 4.20287 15.0214C3.47645 15.3586 2.93163 16.2407 2.87974 17.3044H2.77597C1.2453 17.3044 0 18.887 0 20.8587V25.0875C0 27.0592 1.2453 28.6418 2.77597 28.6418H2.87974C2.95758 29.9908 3.83966 31.0805 4.90335 31.0805C6.01892 31.0805 6.95289 29.913 6.95289 28.4602V17.486C6.95289 16.7855 6.74534 16.1369 6.35619 15.644C6.22647 15.4884 6.09676 15.3586 5.94109 15.2289C6.01892 8.04253 11.493 2.23115 18.2384 2.23115C24.9318 2.23115 30.4059 7.9647 30.5357 15.0732C30.2762 15.203 30.0687 15.3846 29.8611 15.644C29.472 16.1369 29.2644 16.7855 29.2644 17.486V28.4602C29.2644 29.8871 30.1724 31.0805 31.314 31.0805C32.4036 31.0805 33.2857 30.0168 33.3376 28.6418H33.4413C34.972 28.6418 36.2173 27.0592 36.2173 25.0875V20.8587C36.2432 18.887 34.998 17.3044 33.4413 17.3044Z" fill="#F8FF12"/>
</svg>
