<?xml version="1.0" encoding="utf-8"?>
<!-- Generator: Adobe Illustrator 21.0.0, SVG Export Plug-In . SVG Version: 6.00 Build 0)  -->
<svg version="1.1" id="Capa_1" xmlns="http://www.w3.org/2000/svg" xmlns:xlink="http://www.w3.org/1999/xlink" x="0px" y="0px"
	 viewBox="0 0 456.8 456.8" style="enable-background:new 0 0 456.8 456.8;" xml:space="preserve">
<style type="text/css">
	.st0{fill:#FFFFFF;}
</style>
<g>
	<g>
		<path class="st0" d="M109.6,324.3c-11.4,0-21.1,4-29.1,12c-8,8-12,17.7-12,29.1c0,11.4,4,21.1,12,29.1c8,8,17.7,12,29.1,12
			c11.2,0,20.9-4,29-12c8.1-8,12.1-17.7,12.1-29.1c0-11.4-4-21.1-12.1-29.1C130.5,328.3,120.9,324.3,109.6,324.3z"/>
		<path class="st0" d="M100.5,237.5c0-12.6-4.5-23.3-13.4-32.3c-8.9-8.9-19.7-13.4-32.3-13.4c-12.6,0-23.3,4.5-32.3,13.4
			c-8.9,8.9-13.4,19.7-13.4,32.3c0,12.6,4.5,23.3,13.4,32.3c8.9,8.9,19.7,13.4,32.3,13.4c12.6,0,23.3-4.5,32.3-13.4
			C96,260.9,100.5,250.1,100.5,237.5z"/>
		<path class="st0" d="M365.5,132.5c6.3,0,11.7-2.2,16.1-6.7c4.5-4.5,6.7-9.9,6.7-16.1c0-6.3-2.2-11.7-6.7-16.1
			c-4.5-4.5-9.9-6.7-16.1-6.7c-6.3,0-11.7,2.2-16.1,6.7c-4.5,4.5-6.7,9.8-6.7,16.1s2.2,11.7,6.7,16.1
			C353.8,130.2,359.2,132.5,365.5,132.5z"/>
		<path class="st0" d="M109.6,59.4c-13.9,0-25.7,4.9-35.5,14.7c-9.8,9.8-14.7,21.7-14.7,35.5c0,13.9,4.9,25.7,14.7,35.5
			c9.8,9.8,21.7,14.7,35.5,14.7s25.7-4.9,35.5-14.7c9.8-9.8,14.7-21.7,14.7-35.5c0-13.9-4.9-25.7-14.7-35.5
			C135.4,64.3,123.5,59.4,109.6,59.4z"/>
		<path class="st0" d="M439.7,218.1c-5.3-5.3-11.8-8-19.4-8c-7.6,0-14.1,2.7-19.4,8c-5.3,5.3-8,11.8-8,19.4c0,7.6,2.7,14.1,8,19.4
			c5.3,5.3,11.8,8,19.4,8c7.6,0,14.1-2.7,19.4-8c5.3-5.3,8-11.8,8-19.4C447.7,229.9,445,223.5,439.7,218.1z"/>
		<path class="st0" d="M365.5,333.5c-8.8,0-16.3,3.1-22.6,9.4c-6.3,6.3-9.4,13.8-9.4,22.6c0,8.8,3.1,16.3,9.4,22.6
			c6.3,6.3,13.8,9.4,22.6,9.4c8.8,0,16.3-3.1,22.6-9.4c6.3-6.3,9.4-13.8,9.4-22.6c0-8.8-3.1-16.3-9.4-22.6
			C381.7,336.6,374.2,333.5,365.5,333.5z"/>
		<path class="st0" d="M237.5,383.7c-10.1,0-18.7,3.6-25.8,10.7c-7.1,7.1-10.7,15.7-10.7,25.8s3.6,18.7,10.7,25.8
			c7.1,7.1,15.8,10.7,25.8,10.7c10.1,0,18.7-3.6,25.8-10.7c7.1-7.1,10.7-15.7,10.7-25.8s-3.6-18.7-10.7-25.8
			S247.6,383.7,237.5,383.7z"/>
		<path class="st0" d="M237.5,0c-15.2,0-28.2,5.3-38.8,16c-10.7,10.7-16,23.6-16,38.8c0,15.2,5.3,28.2,16,38.8
			c10.7,10.7,23.6,16,38.8,16c15.2,0,28.2-5.3,38.8-16c10.7-10.7,16-23.6,16-38.8c0-15.2-5.3-28.2-16-38.8
			C265.7,5.3,252.8,0,237.5,0z"/>
	</g>
</g>
</svg>
